Dinish-ExpandedRegular.ufo
<glyph name="zero" format="2">
  <advance width="562"/>
  <unicode hex="0030"/>
  <outline>
    <contour>
      <point x="282" y="-10" type="curve" smooth="yes"/>
      <point x="426.765" y="-10"/>
      <point x="502" y="78.2303"/>
      <point x="502" y="248" type="curve" smooth="yes"/>
      <point x="502" y="464" type="line" smooth="yes"/>
      <point x="502" y="630.9"/>
      <point x="427.13" y="717"/>
      <point x="282" y="717" type="curve" smooth="yes"/>
      <point x="136.87" y="717"/>
      <point x="62" y="630.9"/>
      <point x="62" y="464" type="curve" smooth="yes"/>
      <point x="62" y="248" type="line" smooth="yes"/>
      <point x="62" y="78.6118"/>
      <point x="137.56" y="-10"/>
    </contour>
    <contour>
      <point x="282" y="73" type="curve" smooth="yes"/>
      <point x="194.154" y="73"/>
      <point x="156" y="128.111"/>
      <point x="156" y="255" type="curve" smooth="yes"/>
      <point x="156" y="452" type="line" smooth="yes"/>
      <point x="156" y="578.889"/>
      <point x="194.154" y="634"/>
      <point x="282" y="634" type="curve" smooth="yes"/>
      <point x="370.194" y="634"/>
      <point x="409" y="578.388"/>
      <point x="409" y="452" type="curve" smooth="yes"/>
      <point x="409" y="255" type="line" smooth="yes"/>
      <point x="409" y="130.613"/>
      <point x="368.798" y="73"/>
    </contour>
  </outline>
</glyph>
<glyph name="two" format="2">
  <advance width="542"/>
  <unicode hex="0032"/>
  <outline>
    <contour>
      <point x="57" y="0" type="line"/>
      <point x="489" y="0" type="line"/>
      <point x="489" y="82" type="line"/>
      <point x="180" y="82" type="line"/>
      <point x="390" y="321" type="line" smooth="yes"/>
      <point x="454.906" y="394.87"/>
      <point x="483" y="445.491"/>
      <point x="483" y="514" type="curve" smooth="yes"/>
      <point x="483" y="529" type="line" smooth="yes"/>
      <point x="483" y="643.086"/>
      <point x="398.471" y="717"/>
      <point x="268" y="717" type="curve" smooth="yes"/>
      <point x="138.21" y="717"/>
      <point x="56" y="644.484"/>
      <point x="56" y="530" type="curve" smooth="yes"/>
      <point x="56" y="512" type="line"/>
      <point x="146" y="512" type="line"/>
      <point x="146" y="523" type="line" smooth="yes"/>
      <point x="146" y="596.117"/>
      <point x="188.354" y="636"/>
      <point x="266" y="636" type="curve" smooth="yes"/>
      <point x="344.012" y="636"/>
      <point x="390" y="595.575"/>
      <point x="390" y="527" type="curve" smooth="yes"/>
      <point x="390" y="515" type="line" smooth="yes"/>
      <point x="390" y="465.667"/>
      <point x="369.788" y="429.733"/>
      <point x="318" y="371" type="curve" smooth="yes"/>
      <point x="57" y="75" type="line"/>
    </contour>
  </outline>
</glyph>
<glyph name="six" format="2">
  <advance width="565"/>
  <unicode hex="0036"/>
  <outline>
    <contour>
      <point x="299" y="707" type="line"/>
      <point x="126" y="418" type="line"/>
      <point x="74.8314" y="338.554"/>
      <point x="56" y="285.019"/>
      <point x="56" y="219" type="curve" smooth="yes"/>
      <point x="56" y="197" type="line" smooth="yes"/>
      <point x="56" y="70.3099"/>
      <point x="144.457" y="-10"/>
      <point x="284" y="-10" type="curve" smooth="yes"/>
      <point x="422.597" y="-10"/>
      <point x="511" y="72.1722"/>
      <point x="511" y="201" type="curve" smooth="yes"/>
      <point x="511" y="225" type="line" smooth="yes"/>
      <point x="511" y="342.783"/>
      <point x="425.783" y="428"/>
      <point x="308" y="428" type="curve" smooth="yes"/>
      <point x="273.259" y="428"/>
      <point x="239.369" y="421.068"/>
      <point x="220" y="410" type="curve"/>
      <point x="400" y="707" type="line"/>
    </contour>
    <contour>
      <point x="150" y="197" type="curve" smooth="yes"/>
      <point x="150" y="220" type="line" smooth="yes"/>
      <point x="150" y="299.158"/>
      <point x="199.444" y="346"/>
      <point x="283" y="346" type="curve" smooth="yes"/>
      <point x="366.344" y="346"/>
      <point x="419" y="297.603"/>
      <point x="419" y="221" type="curve" smooth="yes"/>
      <point x="419" y="198" type="line" smooth="yes"/>
      <point x="419" y="119.202"/>
      <point x="367.761" y="71"/>
      <point x="284" y="71" type="curve" smooth="yes"/>
      <point x="201.545" y="71"/>
      <point x="150" y="119.468"/>
    </contour>
  </outline>
</glyph>
<glyph name="eight" format="2">
  <advance width="581"/>
  <unicode hex="0038"/>
  <outline>
    <contour>
      <point x="171" y="372" type="curve"/>
      <point x="100.159" y="341.258"/>
      <point x="62" y="283.144"/>
      <point x="62" y="206" type="curve" smooth="yes"/>
      <point x="62" y="190" type="line" smooth="yes"/>
      <point x="62" y="68.1794"/>
      <point x="151.906" y="-10"/>
      <point x="292" y="-10" type="curve" smooth="yes"/>
      <point x="430.723" y="-10"/>
      <point x="521" y="69.2387"/>
      <point x="521" y="191" type="curve" smooth="yes"/>
      <point x="521" y="207" type="line" smooth="yes"/>
      <point x="521" y="282.458"/>
      <point x="482.614" y="341.652"/>
      <point x="414" y="372" type="curve"/>
      <point x="471.938" y="397.6"/>
      <point x="507" y="453.022"/>
      <point x="507" y="519" type="curve" smooth="yes"/>
      <point x="507" y="532" type="line" smooth="yes"/>
      <point x="507" y="643.419"/>
      <point x="421.487" y="717"/>
      <point x="292" y="717" type="curve" smooth="yes"/>
      <point x="163.666" y="717"/>
      <point x="78" y="642.943"/>
      <point x="78" y="532" type="curve" smooth="yes"/>
      <point x="78" y="519" type="line" smooth="yes"/>
      <point x="78" y="451.968"/>
      <point x="112.652" y="397.196"/>
    </contour>
    <contour>
      <point x="170" y="517" type="curve" smooth="yes"/>
      <point x="170" y="532" type="line" smooth="yes"/>
      <point x="170" y="596.492"/>
      <point x="216.346" y="636"/>
      <point x="292" y="636" type="curve" smooth="yes"/>
      <point x="367.846" y="636"/>
      <point x="415" y="596.13"/>
      <point x="415" y="532" type="curve" smooth="yes"/>
      <point x="415" y="517" type="line" smooth="yes"/>
      <point x="415" y="451.109"/>
      <point x="368.458" y="411"/>
      <point x="292" y="411" type="curve" smooth="yes"/>
      <point x="215.736" y="411"/>
      <point x="170" y="450.738"/>
    </contour>
    <contour>
      <point x="155" y="193" type="curve" smooth="yes"/>
      <point x="155" y="209" type="line" smooth="yes"/>
      <point x="155" y="284.606"/>
      <point x="206.397" y="330"/>
      <point x="292" y="330" type="curve" smooth="yes"/>
      <point x="376.937" y="330"/>
      <point x="429" y="284.017"/>
      <point x="429" y="209" type="curve" smooth="yes"/>
      <point x="429" y="193" type="line" smooth="yes"/>
      <point x="429" y="115.951"/>
      <point x="378.522" y="71"/>
      <point x="292" y="71" type="curve" smooth="yes"/>
      <point x="205.995" y="71"/>
      <point x="155" y="116.411"/>
    </contour>
  </outline>
</glyph>
<glyph name="at" format="2">
  <advance width="877"/>
  <unicode hex="0040"/>
  <outline>
    <contour>
      <point x="652" y="-4" type="line"/>
      <point x="585.15" y="-40.8359"/>
      <point x="522.744" y="-56"/>
      <point x="438" y="-56" type="curve" smooth="yes"/>
      <point x="254.874" y="-56"/>
      <point x="138" y="63.6013"/>
      <point x="138" y="251" type="curve" smooth="yes"/>
      <point x="138" y="330" type="line" smooth="yes"/>
      <point x="138" y="515.496"/>
      <point x="254.34" y="633"/>
      <point x="438" y="633" type="curve" smooth="yes"/>
      <point x="621.824" y="633"/>
      <point x="739" y="515.434"/>
      <point x="739" y="331" type="curve" smooth="yes"/>
      <point x="739" y="253" type="line" smooth="yes"/>
      <point x="739" y="165.333"/>
      <point x="716.701" y="126"/>
      <point x="667" y="126" type="curve" smooth="yes"/>
      <point x="627.263" y="126"/>
      <point x="603" y="156.708"/>
      <point x="603" y="207" type="curve" smooth="yes"/>
      <point x="603" y="503" type="line"/>
      <point x="522" y="503" type="line"/>
      <point x="522" y="458" type="line"/>
      <point x="499.412" y="493.294"/>
      <point x="460" y="513"/>
      <point x="412" y="513" type="curve" smooth="yes"/>
      <point x="315.41" y="513"/>
      <point x="265" y="450.245"/>
      <point x="265" y="330" type="curve" smooth="yes"/>
      <point x="265" y="240" type="line" smooth="yes"/>
      <point x="265" y="119.788"/>
      <point x="316.809" y="57"/>
      <point x="416" y="57" type="curve" smooth="yes"/>
      <point x="480.667" y="57"/>
      <point x="523.667" y="80.6667"/>
      <point x="545" y="128" type="curve"/>
      <point x="565.013" y="82.6369"/>
      <point x="608.704" y="57"/>
      <point x="666" y="57" type="curve" smooth="yes"/>
      <point x="764.801" y="57"/>
      <point x="824" y="131.186"/>
      <point x="824" y="255" type="curve" smooth="yes"/>
      <point x="824" y="332" type="line" smooth="yes"/>
      <point x="824" y="553.693"/>
      <point x="664.385" y="710"/>
      <point x="438" y="710" type="curve" smooth="yes"/>
      <point x="210.135" y="710"/>
      <point x="53" y="554.497"/>
      <point x="53" y="329" type="curve" smooth="yes"/>
      <point x="53" y="251" type="line" smooth="yes"/>
      <point x="53" y="22.812"/>
      <point x="209.218" y="-133"/>
      <point x="438" y="-133" type="curve" smooth="yes"/>
      <point x="537.29" y="-133"/>
      <point x="609.799" y="-114.725"/>
      <point x="684" y="-71" type="curve"/>
    </contour>
    <contour>
      <point x="435" y="128" type="curve" smooth="yes"/>
      <point x="376.892" y="128"/>
      <point x="349" y="165.946"/>
      <point x="349" y="245" type="curve" smooth="yes"/>
      <point x="349" y="329" type="line" smooth="yes"/>
      <point x="349" y="404.333"/>
      <point x="377.667" y="442"/>
      <point x="435" y="442" type="curve" smooth="yes"/>
      <point x="490.724" y="442"/>
      <point x="520" y="403.769"/>
      <point x="520" y="331" type="curve" smooth="yes"/>
      <point x="520" y="241" type="line" smooth="yes"/>
      <point x="520" y="165.667"/>
      <point x="491.667" y="128"/>
    </contour>
  </outline>
</glyph>
<glyph name="C" format="2">
  <advance width="696"/>
  <unicode hex="0043"/>
  <anchor x="358" y="760" name="top"/>
  <anchor x="326" y="0" name="b.cedilla"/>
  <anchor x="236" y="-86" name="bottom"/>
  <outline>
    <contour>
      <point x="543" y="222" type="line"/>
      <point x="543" y="218" type="line" smooth="yes"/>
      <point x="543" y="125.49"/>
      <point x="478.387" y="75"/>
      <point x="360" y="75" type="curve" smooth="yes"/>
      <point x="221.528" y="75"/>
      <point x="156" y="147.595"/>
      <point x="156" y="301" type="curve" smooth="yes"/>
      <point x="156" y="400" type="line" smooth="yes"/>
      <point x="156" y="558.814"/>
      <point x="220.634" y="633"/>
      <point x="359" y="633" type="curve" smooth="yes"/>
      <point x="476.855" y="633"/>
      <point x="543" y="581.594"/>
      <point x="543" y="490" type="curve" smooth="yes"/>
      <point x="543" y="486" type="line"/>
      <point x="636" y="486" type="line"/>
      <point x="636" y="492" type="line" smooth="yes"/>
      <point x="636" y="631.772"/>
      <point x="531.454" y="717"/>
      <point x="360" y="717" type="curve" smooth="yes"/>
      <point x="166.319" y="717"/>
      <point x="62" y="608.13"/>
      <point x="62" y="406" type="curve" smooth="yes"/>
      <point x="62" y="302" type="line" smooth="yes"/>
      <point x="62" y="100.291"/>
      <point x="166.02" y="-9"/>
      <point x="358" y="-9" type="curve" smooth="yes"/>
      <point x="529.42" y="-9"/>
      <point x="635" y="77.141"/>
      <point x="635" y="217" type="curve" smooth="yes"/>
      <point x="635" y="222" type="line"/>
    </contour>
  </outline>
  <guideline angle="90" name="h1" x="358" y="0"/>
</glyph>
<glyph name="E" format="2">
  <advance width="611"/>
  <unicode hex="0045"/>
  <anchor x="316" y="760" name="top"/>
  <anchor x="316" y="-86" name="bottom"/>
  <anchor x="567" y="0" name="b.cedilla"/>
  <outline>
    <contour>
      <point x="74" y="0" type="line"/>
      <point x="567" y="0" type="line"/>
      <point x="567" y="83" type="line"/>
      <point x="167" y="83" type="line"/>
      <point x="167" y="317" type="line"/>
      <point x="510" y="317" type="line"/>
      <point x="510" y="400" type="line"/>
      <point x="167" y="400" type="line"/>
      <point x="167" y="624" type="line"/>
      <point x="567" y="624" type="line"/>
      <point x="567" y="707" type="line"/>
      <point x="74" y="707" type="line"/>
    </contour>
  </outline>
  <guideline angle="90" name="h1" x="316" y="0"/>
</glyph>
<glyph name="F" format="2">
  <advance width="604"/>
  <unicode hex="0046"/>
  <anchor x="326" y="760" name="top"/>
  <anchor x="236" y="-86" name="bottom"/>
  <outline>
    <contour>
      <point x="146.64" y="314" type="line"/>
      <point x="511" y="314" type="line"/>
      <point x="511" y="397" type="line"/>
      <point x="146.64" y="397" type="line"/>
    </contour>
    <contour>
      <point x="146.82" y="624" type="line"/>
      <point x="567" y="624" type="line"/>
      <point x="567" y="707" type="line"/>
      <point x="146.82" y="707" type="line"/>
    </contour>
    <contour>
      <point x="74" y="0" type="line"/>
      <point x="167" y="0" type="line"/>
      <point x="167" y="707.09" type="line"/>
      <point x="74" y="707" type="line"/>
    </contour>
  </outline>
  <guideline angle="90" name="h1" x="326" y="0"/>
</glyph>
<glyph name="R" format="2">
  <advance width="680"/>
  <unicode hex="0052"/>
  <anchor x="311" y="760" name="top"/>
  <anchor x="311" y="-86" name="bottom"/>
  <outline>
    <contour>
      <point x="74" y="0" type="line"/>
      <point x="167" y="0" type="line"/>
      <point x="167" y="301" type="line"/>
      <point x="372" y="301" type="line"/>
      <point x="537" y="0" type="line"/>
      <point x="643" y="0" type="line"/>
      <point x="468" y="310" type="line"/>
      <point x="569.253" y="333.981"/>
      <point x="623" y="401.252"/>
      <point x="623" y="504" type="curve" smooth="yes"/>
      <point x="623" y="635.035"/>
      <point x="537.563" y="707"/>
      <point x="382" y="707" type="curve" smooth="yes"/>
      <point x="74" y="707" type="line"/>
    </contour>
    <contour>
      <point x="167" y="382" type="line"/>
      <point x="167" y="624" type="line"/>
      <point x="378" y="624" type="line" smooth="yes"/>
      <point x="480.506" y="624"/>
      <point x="529" y="585.461"/>
      <point x="529" y="504" type="curve" smooth="yes"/>
      <point x="529" y="419.931"/>
      <point x="483.918" y="382"/>
      <point x="384" y="382" type="curve" smooth="yes"/>
    </contour>
  </outline>
  <guideline angle="90" name="h1" x="311" y="0"/>
</glyph>
<glyph name="U" format="2">
  <advance width="708"/>
  <unicode hex="0055"/>
  <anchor x="354" y="760" name="top"/>
  <anchor x="354" y="-86" name="bottom"/>
  <anchor x="408" y="0" name="b.cedilla"/>
  <outline>
    <contour>
      <point x="74" y="707" type="line"/>
      <point x="74" y="253" type="line" smooth="yes"/>
      <point x="74" y="89.3995"/>
      <point x="177.135" y="-6"/>
      <point x="354" y="-6" type="curve" smooth="yes"/>
      <point x="530.965" y="-6"/>
      <point x="635" y="89.8897"/>
      <point x="635" y="253" type="curve" smooth="yes"/>
      <point x="635" y="707" type="line"/>
      <point x="541" y="707" type="line"/>
      <point x="541" y="259" type="line" smooth="yes"/>
      <point x="541" y="136.998"/>
      <point x="478.667" y="76"/>
      <point x="354" y="76" type="curve" smooth="yes"/>
      <point x="229.333" y="76"/>
      <point x="168" y="137"/>
      <point x="168" y="259" type="curve" smooth="yes"/>
      <point x="168" y="707" type="line"/>
    </contour>
  </outline>
  <guideline angle="90" name="h1" x="354" y="0"/>
</glyph>
<glyph name="X" format="2">
  <advance width="663"/>
  <unicode hex="0058"/>
  <anchor x="328" y="760" name="top"/>
  <anchor x="236" y="-86" name="bottom"/>
  <outline>
    <contour>
      <point x="6" y="0" type="line"/>
      <point x="114" y="0" type="line"/>
      <point x="328" y="299" type="line"/>
      <point x="547" y="0" type="line"/>
      <point x="657" y="0" type="line"/>
      <point x="386" y="371" type="line"/>
      <point x="633" y="707" type="line"/>
      <point x="525" y="707" type="line"/>
      <point x="333" y="439" type="line"/>
      <point x="138" y="707" type="line"/>
      <point x="28" y="707" type="line"/>
      <point x="276" y="368" type="line"/>
    </contour>
  </outline>
  <guideline angle="90" name="h1" x="328" y="0"/>
</glyph>
<glyph name="Z" format="2">
  <advance width="584"/>
  <unicode hex="005A"/>
  <anchor x="277" y="760" name="top"/>
  <anchor x="277" y="-86" name="bottom"/>
  <outline>
    <contour>
      <point x="37" y="1" type="line"/>
      <point x="551" y="1" type="line"/>
      <point x="551" y="84" type="line"/>
      <point x="145" y="84" type="line"/>
      <point x="546" y="625" type="line"/>
      <point x="546" y="708" type="line"/>
      <point x="50" y="708" type="line"/>
      <point x="50" y="625" type="line"/>
      <point x="438" y="625" type="line"/>
      <point x="37" y="84" type="line"/>
    </contour>
  </outline>
  <guideline angle="90" name="h1" x="277" y="0"/>
</glyph>
<glyph name="grave" format="2">
  <advance width="512"/>
  <unicode hex="0060"/>
  <outline>
    <contour>
      <point x="99" y="717" type="line"/>
      <point x="247" y="586" type="line"/>
      <point x="331" y="586" type="line"/>
      <point x="213" y="717" type="line"/>
    </contour>
  </outline>
</glyph>
<glyph name="a" format="2">
  <advance width="562"/>
  <unicode hex="0061"/>
  <anchor x="268" y="586" name="top"/>
  <anchor x="268" y="578" name="t.ring"/>
  <anchor x="268" y="-86" name="bottom"/>
  <anchor x="493" y="0" name="b.cedilla"/>
  <outline>
    <contour>
      <point x="409" y="0" type="line"/>
      <point x="494" y="0" type="line"/>
      <point x="494" y="342" type="line" smooth="yes"/>
      <point x="494" y="464.775"/>
      <point x="414.46" y="531"/>
      <point x="267" y="531" type="curve" smooth="yes"/>
      <point x="138.367" y="531"/>
      <point x="60" y="471.184"/>
      <point x="60" y="373" type="curve" smooth="yes"/>
      <point x="60" y="370" type="line"/>
      <point x="145" y="370" type="line"/>
      <point x="145" y="373" type="line" smooth="yes"/>
      <point x="145" y="428.301"/>
      <point x="188.907" y="459"/>
      <point x="268" y="459" type="curve" smooth="yes"/>
      <point x="360.667" y="459"/>
      <point x="407" y="419.333"/>
      <point x="407" y="340" type="curve" smooth="yes"/>
      <point x="407" y="304" type="line"/>
      <point x="244" y="304" type="line" smooth="yes"/>
      <point x="112.763" y="304"/>
      <point x="43" y="251.244"/>
      <point x="43" y="152" type="curve" smooth="yes"/>
      <point x="43" y="49.3504"/>
      <point x="111.312" y="-6"/>
      <point x="238" y="-6" type="curve" smooth="yes"/>
      <point x="316.003" y="-6"/>
      <point x="373" y="15"/>
      <point x="409" y="59" type="curve"/>
    </contour>
    <contour>
      <point x="407" y="239" type="line"/>
      <point x="407" y="198" type="line" smooth="yes"/>
      <point x="407" y="107.993"/>
      <point x="357.865" y="65"/>
      <point x="255" y="65" type="curve" smooth="yes"/>
      <point x="168.712" y="65"/>
      <point x="129" y="92.7354"/>
      <point x="129" y="153" type="curve" smooth="yes"/>
      <point x="129" y="212.111"/>
      <point x="169.333" y="239"/>
      <point x="258" y="239" type="curve" smooth="yes"/>
    </contour>
  </outline>
  <guideline angle="90" name="h1" x="268" y="0"/>
</glyph>
<glyph name="d" format="2">
  <advance width="593"/>
  <unicode hex="0064"/>
  <anchor x="270" y="590" name="top"/>
  <anchor x="290" y="-86" name="bottom"/>
  <outline>
    <contour>
      <point x="438" y="0" type="line"/>
      <point x="524" y="0" type="line"/>
      <point x="524" y="707" type="line"/>
      <point x="438" y="707" type="line"/>
      <point x="438" y="455" type="line"/>
      <point x="404.239" y="504.966"/>
      <point x="340.417" y="535"/>
      <point x="268" y="535" type="curve" smooth="yes"/>
      <point x="134.599" y="535"/>
      <point x="53" y="442.395"/>
      <point x="53" y="291" type="curve" smooth="yes"/>
      <point x="53" y="234" type="line" smooth="yes"/>
      <point x="53" y="81.803"/>
      <point x="134.087" y="-9"/>
      <point x="270" y="-9" type="curve" smooth="yes"/>
      <point x="345.231" y="-9"/>
      <point x="402.975" y="17.8099"/>
      <point x="438" y="69" type="curve"/>
    </contour>
    <contour>
      <point x="287" y="68" type="curve" smooth="yes"/>
      <point x="191.047" y="68"/>
      <point x="140" y="127.381"/>
      <point x="140" y="239" type="curve" smooth="yes"/>
      <point x="140" y="286" type="line" smooth="yes"/>
      <point x="140" y="397.991"/>
      <point x="190.382" y="457"/>
      <point x="286" y="457" type="curve" smooth="yes"/>
      <point x="380.538" y="457"/>
      <point x="438" y="396.136"/>
      <point x="438" y="296" type="curve" smooth="yes"/>
      <point x="438" y="227" type="line" smooth="yes"/>
      <point x="438" y="128.264"/>
      <point x="380.769" y="68"/>
    </contour>
  </outline>
  <guideline angle="90" name="vertical" x="270" y="0"/>
  <guideline angle="0" name="horizontal" x="0" y="590"/>
</glyph>
<glyph name="n" format="2">
  <advance width="585"/>
  <unicode hex="006E"/>
  <anchor x="300" y="586" name="top"/>
  <anchor x="301" y="-86" name="bottom"/>
  <anchor x="0" y="760" name="dot"/>
  <outline>
    <contour>
      <point x="69" y="0" type="line"/>
      <point x="156" y="0" type="line"/>
      <point x="156" y="307" type="line" smooth="yes"/>
      <point x="156" y="396.944"/>
      <point x="211.288" y="453"/>
      <point x="300" y="453" type="curve" smooth="yes"/>
      <point x="385.679" y="453"/>
      <point x="430" y="406.974"/>
      <point x="430" y="318" type="curve" smooth="yes"/>
      <point x="430" y="0" type="line"/>
      <point x="517" y="0" type="line"/>
      <point x="517" y="330" type="line" smooth="yes"/>
      <point x="517" y="456.256"/>
      <point x="445.1" y="530"/>
      <point x="322" y="530" type="curve" smooth="yes"/>
      <point x="249" y="530"/>
      <point x="191.829" y="503.982"/>
      <point x="155" y="454" type="curve"/>
      <point x="155" y="524" type="line"/>
      <point x="69" y="524" type="line"/>
    </contour>
  </outline>
  <guideline angle="90" name="h1" x="300" y="0"/>
</glyph>
<glyph name="t" format="2">
  <advance width="392"/>
  <unicode hex="0074"/>
  <anchor x="211" y="-86" name="bottom"/>
  <anchor x="168" y="760" name="top"/>
  <outline>
    <contour>
      <point x="339" y="0" type="line"/>
      <point x="339" y="76" type="line"/>
      <point x="295" y="76" type="line" smooth="yes"/>
      <point x="234.9" y="76"/>
      <point x="211" y="98.7619"/>
      <point x="211" y="156" type="curve" smooth="yes"/>
      <point x="211" y="459" type="line"/>
      <point x="350" y="459" type="line"/>
      <point x="350" y="524" type="line"/>
      <point x="211" y="524" type="line"/>
      <point x="211" y="674" type="line"/>
      <point x="124" y="638" type="line"/>
      <point x="124" y="524" type="line"/>
      <point x="32" y="524" type="line"/>
      <point x="32" y="459" type="line"/>
      <point x="124" y="459" type="line"/>
      <point x="124" y="151" type="line" smooth="yes"/>
      <point x="124" y="50.3333"/>
      <point x="176.333" y="0"/>
      <point x="281" y="0" type="curve" smooth="yes"/>
    </contour>
  </outline>
  <guideline angle="90" name="h1" x="168" y="0"/>
</glyph>
<glyph name="u" format="2">
  <advance width="585"/>
  <unicode hex="0075"/>
  <anchor x="291" y="586" name="top"/>
  <anchor x="291" y="-86" name="bottom"/>
  <anchor x="362" y="0" name="b.cedilla"/>
  <outline>
    <contour>
      <point x="69" y="524" type="line"/>
      <point x="69" y="208" type="line" smooth="yes"/>
      <point x="69" y="69.1617"/>
      <point x="147.996" y="-7"/>
      <point x="292" y="-7" type="curve" smooth="yes"/>
      <point x="436.74" y="-7"/>
      <point x="517" y="69.6929"/>
      <point x="517" y="208" type="curve" smooth="yes"/>
      <point x="517" y="524" type="line"/>
      <point x="430" y="524" type="line"/>
      <point x="430" y="217" type="line" smooth="yes"/>
      <point x="430" y="117.486"/>
      <point x="386.38" y="71"/>
      <point x="293" y="71" type="curve" smooth="yes"/>
      <point x="201.99" y="71"/>
      <point x="156" y="120.011"/>
      <point x="156" y="217" type="curve" smooth="yes"/>
      <point x="156" y="524" type="line"/>
    </contour>
  </outline>
  <guideline angle="90" name="h1" x="291" y="0"/>
</glyph>
<glyph name="v" format="2">
  <advance width="525"/>
  <unicode hex="0076"/>
  <anchor x="263" y="586" name="top"/>
  <anchor x="263" y="-86" name="bottom"/>
  <outline>
    <contour>
      <point x="220" y="0" type="line"/>
      <point x="305" y="0" type="line"/>
      <point x="512" y="524" type="line"/>
      <point x="419" y="524" type="line"/>
      <point x="263" y="109" type="line"/>
      <point x="106" y="524" type="line"/>
      <point x="13" y="524" type="line"/>
    </contour>
  </outline>
  <guideline angle="90" name="h1" x="263" y="0"/>
</glyph>
<glyph name="bar" format="2">
  <advance width="296"/>
  <unicode hex="007C"/>
  <outline>
    <contour>
      <point x="106" y="-85" type="line"/>
      <point x="190" y="-85" type="line"/>
      <point x="190" y="758" type="line"/>
      <point x="106" y="758" type="line"/>
    </contour>
  </outline>
</glyph>
<glyph name="asciitilde" format="2">
  <advance width="521"/>
  <unicode hex="007E"/>
  <outline>
    <contour>
      <point x="104" y="215" type="line"/>
      <point x="129.218" y="260.127"/>
      <point x="146.853" y="274"/>
      <point x="179" y="274" type="curve" smooth="yes"/>
      <point x="235.879" y="274"/>
      <point x="266.328" y="212"/>
      <point x="342" y="212" type="curve" smooth="yes"/>
      <point x="398.44" y="212"/>
      <point x="445.571" y="247.172"/>
      <point x="476" y="312" type="curve"/>
      <point x="417" y="349" type="line"/>
      <point x="391.702" y="303.729"/>
      <point x="373.044" y="289"/>
      <point x="341" y="289" type="curve" smooth="yes"/>
      <point x="286.754" y="289"/>
      <point x="248.492" y="350"/>
      <point x="177" y="350" type="curve" smooth="yes"/>
      <point x="120.448" y="350"/>
      <point x="74.3701" y="315.702"/>
      <point x="44" y="251" type="curve"/>
    </contour>
  </outline>
</glyph>
<glyph name="copyright" format="2">
  <advance width="822"/>
  <unicode hex="00A9"/>
  <outline>
    <contour>
      <point x="413" y="-9" type="curve" smooth="yes"/>
      <point x="622" y="-9"/>
      <point x="762" y="135"/>
      <point x="762" y="349" type="curve" smooth="yes"/>
      <point x="762" y="563"/>
      <point x="621" y="708"/>
      <point x="413" y="708" type="curve" smooth="yes"/>
      <point x="205" y="708"/>
      <point x="62" y="562"/>
      <point x="62" y="349" type="curve" smooth="yes"/>
      <point x="62" y="136"/>
      <point x="204" y="-9"/>
    </contour>
    <contour>
      <point x="413" y="51" type="curve" smooth="yes"/>
      <point x="241" y="51"/>
      <point x="128" y="169"/>
      <point x="128" y="349" type="curve" smooth="yes"/>
      <point x="128" y="529"/>
      <point x="240" y="646"/>
      <point x="413" y="646" type="curve" smooth="yes"/>
      <point x="585" y="646"/>
      <point x="696" y="530"/>
      <point x="696" y="349" type="curve" smooth="yes"/>
      <point x="696" y="168"/>
      <point x="585" y="51"/>
    </contour>
    <contour>
      <point x="511" y="289" type="line"/>
      <point x="511" y="285" type="line" smooth="yes"/>
      <point x="511" y="237"/>
      <point x="477" y="210"/>
      <point x="418" y="210" type="curve" smooth="yes"/>
      <point x="345" y="210"/>
      <point x="308" y="251"/>
      <point x="308" y="332" type="curve" smooth="yes"/>
      <point x="308" y="370" type="line" smooth="yes"/>
      <point x="308" y="449"/>
      <point x="345" y="490"/>
      <point x="417" y="490" type="curve" smooth="yes"/>
      <point x="477" y="490"/>
      <point x="511" y="463"/>
      <point x="511" y="416" type="curve" smooth="yes"/>
      <point x="511" y="413" type="line"/>
      <point x="579" y="413" type="line"/>
      <point x="579" y="417" type="line" smooth="yes"/>
      <point x="579" y="499"/>
      <point x="517" y="550"/>
      <point x="416" y="550" type="curve" smooth="yes"/>
      <point x="305" y="550"/>
      <point x="240" y="484"/>
      <point x="240" y="372" type="curve" smooth="yes"/>
      <point x="240" y="330" type="line" smooth="yes"/>
      <point x="240" y="217"/>
      <point x="304" y="152"/>
      <point x="416" y="152" type="curve" smooth="yes"/>
      <point x="515" y="152"/>
      <point x="578" y="204"/>
      <point x="578" y="285" type="curve" smooth="yes"/>
      <point x="578" y="289" type="line"/>
    </contour>
  </outline>
</glyph>
<glyph name="divide" format="2">
  <advance width="521"/>
  <unicode hex="00F7"/>
  <outline>
    <contour>
      <point x="260" y="381" type="curve" smooth="yes"/>
      <point x="292" y="381"/>
      <point x="315" y="404"/>
      <point x="315" y="436" type="curve" smooth="yes"/>
      <point x="315" y="467.042"/>
      <point x="291.617" y="490"/>
      <point x="260" y="490" type="curve" smooth="yes"/>
      <point x="230" y="490"/>
      <point x="206" y="466"/>
      <point x="206" y="436" type="curve" smooth="yes"/>
      <point x="206" y="405.529"/>
      <point x="230.083" y="381"/>
    </contour>
    <contour>
      <point x="54" y="242" type="line"/>
      <point x="467" y="242" type="line"/>
      <point x="467" y="324" type="line"/>
      <point x="54" y="324" type="line"/>
    </contour>
    <contour>
      <point x="260" y="77" type="curve" smooth="yes"/>
      <point x="291.617" y="77"/>
      <point x="315" y="99.9576"/>
      <point x="315" y="131" type="curve" smooth="yes"/>
      <point x="315" y="163"/>
      <point x="292" y="186"/>
      <point x="260" y="186" type="curve" smooth="yes"/>
      <point x="229.624" y="186"/>
      <point x="206" y="161.938"/>
      <point x="206" y="131" type="curve" smooth="yes"/>
      <point x="206" y="101.482"/>
      <point x="230.482" y="77"/>
    </contour>
  </outline>
</glyph>
<glyph name="oslash" format="2">
  <advance width="585"/>
  <unicode hex="00F8"/>
  <anchor x="293" y="586" name="top"/>
  <outline>
    <component base="o"/>
    <contour>
      <point x="61" y="-31" type="line"/>
      <point x="127" y="-31" type="line"/>
      <point x="524" y="551" type="line"/>
      <point x="459" y="551" type="line"/>
    </contour>
  </outline>
  <guideline angle="90" name="h1" x="293" y="0"/>
</glyph>
<glyph name="eng" format="2">
  <advance width="585"/>
  <unicode hex="014B"/>
  <outline>
    <contour>
      <point x="69" y="0" type="line"/>
      <point x="156" y="0" type="line"/>
      <point x="156" y="307" type="line" smooth="yes"/>
      <point x="156" y="397.171"/>
      <point x="211.064" y="453"/>
      <point x="300" y="453" type="curve" smooth="yes"/>
      <point x="385.773" y="453"/>
      <point x="430" y="407.072"/>
      <point x="430" y="318" type="curve" smooth="yes"/>
      <point x="430" y="-10" type="line" smooth="yes"/>
      <point x="430" y="-71.1402"/>
      <point x="406.14" y="-95"/>
      <point x="345" y="-95" type="curve" smooth="yes"/>
      <point x="300" y="-95" type="line"/>
      <point x="300" y="-173" type="line"/>
      <point x="357" y="-173" type="line" smooth="yes"/>
      <point x="465.798" y="-173"/>
      <point x="517" y="-122.439"/>
      <point x="517" y="-15" type="curve" smooth="yes"/>
      <point x="517" y="330" type="line" smooth="yes"/>
      <point x="517" y="456.483"/>
      <point x="445.321" y="530"/>
      <point x="322" y="530" type="curve" smooth="yes"/>
      <point x="249.723" y="530"/>
      <point x="193.216" y="504.284"/>
      <point x="155" y="454" type="curve"/>
      <point x="155" y="524" type="line"/>
      <point x="69" y="524" type="line"/>
    </contour>
  </outline>
</glyph>
<glyph name="Rcommaaccent" format="2">
  <advance width="680"/>
  <unicode hex="0156"/>
  <outline>
    <contour>
      <point x="74" y="0" type="line"/>
      <point x="167" y="0" type="line"/>
      <point x="167" y="301" type="line"/>
      <point x="372" y="301" type="line"/>
      <point x="537" y="0" type="line"/>
      <point x="643" y="0" type="line"/>
      <point x="468" y="310" type="line"/>
      <point x="569.253" y="333.981"/>
      <point x="623" y="401.252"/>
      <point x="623" y="504" type="curve" smooth="yes"/>
      <point x="623" y="635.035"/>
      <point x="537.563" y="707"/>
      <point x="382" y="707" type="curve" smooth="yes"/>
      <point x="74" y="707" type="line"/>
    </contour>
    <contour>
      <point x="167" y="382" type="line"/>
      <point x="167" y="624" type="line"/>
      <point x="378" y="624" type="line" smooth="yes"/>
      <point x="480.506" y="624"/>
      <point x="529" y="585.461"/>
      <point x="529" y="504" type="curve" smooth="yes"/>
      <point x="529" y="419.931"/>
      <point x="483.918" y="382"/>
      <point x="384" y="382" type="curve" smooth="yes"/>
    </contour>
    <contour>
      <point x="299" y="-173" type="line"/>
      <point x="382" y="-99" type="line"/>
      <point x="382" y="-30" type="line"/>
      <point x="299" y="-30" type="line"/>
    </contour>
  </outline>
</glyph>
<glyph name="tcaron" format="2">
  <advance width="392"/>
  <unicode hex="0165"/>
  <outline>
    <component base="t"/>
    <contour>
      <point x="289" y="539" type="line"/>
      <point x="372" y="613" type="line"/>
      <point x="372" y="707" type="line"/>
      <point x="289" y="707" type="line"/>
    </contour>
  </outline>
</glyph>
<glyph name="obarred" format="2">
  <advance width="585"/>
  <unicode hex="0275"/>
  <outline>
    <component base="o"/>
    <contour>
      <point x="129" y="223" type="line"/>
      <point x="455" y="223" type="line"/>
      <point x="455" y="306" type="line"/>
      <point x="129" y="306" type="line"/>
    </contour>
  </outline>
</glyph>
<glyph name="uni0301" format="2">
  <unicode hex="0301"/>
  <anchor x="0" y="586" name="_top"/>
  <outline>
    <contour>
      <point x="-79.5" y="586" type="line"/>
      <point x="1.5" y="586" type="line"/>
      <point x="139.5" y="717" type="line"/>
      <point x="31.5" y="717" type="line"/>
    </contour>
  </outline>
  <guideline angle="90" name="h1" x="0" y="0"/>
</glyph>
<glyph name="uni030C" format="2">
  <unicode hex="030C"/>
  <anchor x="0" y="586" name="_top"/>
  <outline>
    <contour>
      <point x="-33.5" y="580" type="line"/>
      <point x="33.5" y="580" type="line"/>
      <point x="167.5" y="729" type="line"/>
      <point x="85.5" y="729" type="line"/>
      <point x="0.5" y="637" type="line"/>
      <point x="-85.5" y="729" type="line"/>
      <point x="-167.5" y="729" type="line"/>
    </contour>
  </outline>
  <guideline angle="90" name="h1" x="0" y="0"/>
</glyph>
<glyph name="uni0312" format="2">
  <unicode hex="0312"/>
  <outline>
    <contour>
      <point x="-81" y="586" type="line"/>
      <point x="28" y="586" type="line"/>
      <point x="143" y="717" type="line"/>
      <point x="61" y="717" type="line"/>
    </contour>
  </outline>
</glyph>
<glyph name="Ljecyr" format="2">
  <advance width="1033"/>
  <unicode hex="0409"/>
  <outline>
    <component base="Elcyr"/>
    <contour>
      <point x="496.82" y="0" type="line"/>
      <point x="730" y="0" type="line" smooth="yes"/>
      <point x="888.186" y="0"/>
      <point x="973" y="73.9938"/>
      <point x="973" y="212" type="curve" smooth="yes"/>
      <point x="973" y="348.886"/>
      <point x="887.646" y="423"/>
      <point x="730" y="423" type="curve" smooth="yes"/>
      <point x="496.82" y="423" type="line"/>
      <point x="496.82" y="340" type="line"/>
      <point x="732" y="340" type="line" smooth="yes"/>
      <point x="834.281" y="340"/>
      <point x="879" y="301.365"/>
      <point x="879" y="213" type="curve" smooth="yes"/>
      <point x="879" y="121.086"/>
      <point x="834.338" y="83.1379"/>
      <point x="726" y="83" type="curve" smooth="yes"/>
      <point x="496.82" y="82.7084" type="line"/>
    </contour>
  </outline>
</glyph>
<glyph name="Tshecyr" format="2">
  <advance width="833"/>
  <unicode hex="040B"/>
  <outline>
    <contour>
      <point x="236" y="0" type="line"/>
      <point x="328" y="0" type="line"/>
      <point x="328" y="624" type="line"/>
      <point x="556" y="624" type="line"/>
      <point x="556" y="707" type="line"/>
      <point x="7" y="707" type="line"/>
      <point x="7" y="624" type="line"/>
      <point x="236" y="624" type="line"/>
    </contour>
    <contour>
      <point x="773" y="0" type="line"/>
      <point x="773" y="212" type="line" smooth="yes"/>
      <point x="773" y="348.886"/>
      <point x="687.646" y="443"/>
      <point x="530" y="443" type="curve" smooth="yes"/>
      <point x="465.004" y="443"/>
      <point x="393.038" y="437"/>
      <point x="328.042" y="423" type="curve"/>
      <point x="296.82" y="423" type="line"/>
      <point x="296.82" y="340" type="line"/>
      <point x="328.042" y="340" type="line"/>
      <point x="393.698" y="354"/>
      <point x="466.344" y="360"/>
      <point x="532" y="360" type="curve" smooth="yes"/>
      <point x="634.281" y="360"/>
      <point x="679" y="301.365"/>
      <point x="679" y="213" type="curve" smooth="yes"/>
      <point x="679" y="-0.0630035" type="line"/>
    </contour>
  </outline>
</glyph>
<glyph name="Decyr" format="2">
  <advance width="643"/>
  <unicode hex="0414"/>
  <outline>
    <contour>
      <point x="449.904" y="0" type="line"/>
      <point x="540" y="0" type="line"/>
      <point x="540" y="-170" type="line"/>
      <point x="633" y="-170" type="line"/>
      <point x="633" y="83" type="line"/>
      <point x="449.904" y="83" type="line"/>
    </contour>
    <contour>
      <point x="90.7853" y="0" type="line"/>
      <point x="164.56" y="61.9886"/>
      <point x="245.603" y="248.288"/>
      <point x="257" y="374.603" type="curve" smooth="yes"/>
      <point x="287" y="707.09" type="line"/>
      <point x="194" y="707" type="line"/>
      <point x="164" y="410.576" type="line" smooth="yes"/>
      <point x="150.062" y="272.855"/>
      <point x="112.674" y="150.356"/>
      <point x="49.4402" y="82.9269" type="curve"/>
    </contour>
    <contour>
      <point x="484" y="0" type="line"/>
      <point x="577" y="0" type="line"/>
      <point x="577" y="707.09" type="line"/>
      <point x="484" y="707" type="line"/>
    </contour>
    <contour>
      <point x="204.631" y="625.024" type="line"/>
      <point x="500.665" y="625.024" type="line"/>
      <point x="500.665" y="707.024" type="line"/>
      <point x="204.631" y="707.024" type="line"/>
    </contour>
    <contour>
      <point x="200.485" y="0" type="line"/>
      <point x="469.665" y="0" type="line"/>
      <point x="469.665" y="83" type="line"/>
      <point x="200.485" y="83" type="line"/>
    </contour>
    <contour>
      <point x="10" y="-170" type="line"/>
      <point x="103" y="-170" type="line"/>
      <point x="103" y="0" type="line"/>
      <point x="219.944" y="0" type="line"/>
      <point x="219.944" y="83" type="line"/>
      <point x="10" y="82.91" type="line"/>
    </contour>
  </outline>
</glyph>
<glyph name="Yucyr" format="2">
  <advance width="901"/>
  <unicode hex="042E"/>
  <anchor x="495" y="760" name="top"/>
  <outline>
    <component base="O" xOffset="190"/>
    <contour>
      <point x="146.64" y="319" type="line"/>
      <point x="298.879" y="319" type="line"/>
      <point x="298.879" y="401" type="line"/>
      <point x="146.64" y="401" type="line"/>
    </contour>
    <contour>
      <point x="74" y="0" type="line"/>
      <point x="167" y="0" type="line"/>
      <point x="167" y="707" type="line"/>
      <point x="74" y="707" type="line"/>
    </contour>
  </outline>
  <guideline angle="90" name="h1" x="495" y="0"/>
</glyph>
<glyph name="gecyr" format="2">
  <advance width="387"/>
  <unicode hex="0433"/>
  <anchor x="222" y="586" name="top"/>
  <outline>
    <contour>
      <point x="364" y="445" type="line"/>
      <point x="364" y="524" type="line"/>
      <point x="69" y="524" type="line"/>
      <point x="69" y="445.107" type="line"/>
    </contour>
    <contour>
      <point x="69" y="0" type="line"/>
      <point x="156" y="0" type="line"/>
      <point x="156" y="524.02" type="line"/>
      <point x="69" y="524" type="line"/>
    </contour>
  </outline>
  <guideline angle="90" name="h1" x="222" y="0"/>
</glyph>
<glyph name="decyr" format="2">
  <advance width="573"/>
  <unicode hex="0434"/>
  <outline>
    <contour>
      <point x="465.87" y="-170" type="line"/>
      <point x="552.87" y="-170" type="line"/>
      <point x="552.87" y="78.957" type="line"/>
      <point x="445.87" y="78.957" type="line"/>
      <point x="445.87" y="-0.484917" type="line"/>
      <point x="465.87" y="-0.484917" type="line"/>
    </contour>
    <contour>
      <point x="20" y="-170" type="line"/>
      <point x="107" y="-170" type="line"/>
      <point x="107" y="79" type="line"/>
      <point x="20" y="79" type="line"/>
    </contour>
    <contour>
      <point x="411" y="0" type="line"/>
      <point x="498" y="0" type="line"/>
      <point x="498" y="524" type="line"/>
      <point x="411" y="524" type="line"/>
    </contour>
    <contour>
      <point x="49.0474" y="78.6558" type="curve"/>
      <point x="64.6895" y="0" type="line"/>
      <point x="150.237" y="0"/>
      <point x="183.291" y="72.3051"/>
      <point x="188.38" y="140.498" type="curve" smooth="yes"/>
      <point x="217" y="524" type="line"/>
      <point x="130" y="524" type="line"/>
      <point x="99.2682" y="161.365" type="line" smooth="yes"/>
      <point x="93.3372" y="91.3793"/>
      <point x="68.2963" y="78.6558"/>
    </contour>
    <contour>
      <point x="24.6908" y="-0.2325" type="line"/>
      <point x="430.972" y="-0.3442" type="line"/>
      <point x="430.972" y="78.6558" type="line"/>
      <point x="24.6908" y="78.6558" type="line"/>
    </contour>
    <contour>
      <point x="157" y="444.561" type="line"/>
      <point x="430.972" y="445.449" type="line"/>
      <point x="430.972" y="524.449" type="line"/>
      <point x="157" y="524.449" type="line"/>
    </contour>
  </outline>
  <guideline angle="265.156" x="90" y="524"/>
  <guideline angle="85.7321" x="157" y="256"/>
</glyph>
<glyph name="emcyr" format="2">
  <advance width="796"/>
  <unicode hex="043C"/>
  <outline>
    <contour>
      <point x="69.7692" y="0" type="line"/>
      <point x="156.769" y="0" type="line"/>
      <point x="156.769" y="374" type="line" smooth="yes"/>
      <point x="156.769" y="414"/>
      <point x="151.798" y="484"/>
      <point x="144.341" y="524" type="curve"/>
      <point x="69.7692" y="524" type="line"/>
    </contour>
    <contour>
      <point x="397.769" y="164" type="line"/>
      <point x="395.769" y="164" type="line"/>
      <point x="389.769" y="178"/>
      <point x="379.235" y="199.314"/>
      <point x="372.769" y="210" type="curve" smooth="yes"/>
      <point x="182.769" y="524" type="line"/>
      <point x="122.769" y="524" type="line"/>
      <point x="122.769" y="420" type="line"/>
      <point x="156.769" y="420" type="line"/>
      <point x="162.769" y="404"/>
      <point x="172.346" y="386.267"/>
      <point x="179.769" y="374" type="curve" smooth="yes"/>
      <point x="369.769" y="60" type="line"/>
      <point x="413.769" y="60" type="line"/>
    </contour>
    <contour>
      <point x="382" y="60" type="line"/>
      <point x="426" y="60" type="line"/>
      <point x="616" y="374" type="line" smooth="yes"/>
      <point x="623.423" y="386.267"/>
      <point x="633" y="404"/>
      <point x="639" y="420" type="curve"/>
      <point x="673" y="420" type="line"/>
      <point x="673" y="524" type="line"/>
      <point x="613" y="524" type="line"/>
      <point x="423" y="210" type="line" smooth="yes"/>
      <point x="416.534" y="199.314"/>
      <point x="406" y="178"/>
      <point x="400" y="164" type="curve"/>
      <point x="398" y="164" type="line"/>
    </contour>
    <contour>
      <point x="639.769" y="0" type="line"/>
      <point x="726.769" y="0" type="line"/>
      <point x="726.769" y="524" type="line"/>
      <point x="652.198" y="524" type="line"/>
      <point x="645.52" y="481.177"/>
      <point x="639.769" y="414"/>
      <point x="639.769" y="374" type="curve" smooth="yes"/>
    </contour>
  </outline>
</glyph>
<glyph name="softcyr" format="2">
  <advance width="570"/>
  <unicode hex="044C"/>
  <outline>
    <contour>
      <point x="69" y="0" type="line"/>
      <point x="156" y="0" type="line"/>
      <point x="156" y="524" type="line"/>
      <point x="69" y="524" type="line"/>
    </contour>
    <contour>
      <point x="136" y="0" type="line"/>
      <point x="368" y="0" type="line" smooth="yes"/>
      <point x="457" y="0"/>
      <point x="517" y="65"/>
      <point x="517" y="161" type="curve" smooth="yes"/>
      <point x="517" y="243.826"/>
      <point x="484.287" y="322"/>
      <point x="374" y="322" type="curve" smooth="yes"/>
      <point x="136" y="322" type="line"/>
      <point x="136" y="243" type="line"/>
      <point x="363" y="243" type="line" smooth="yes"/>
      <point x="407" y="243"/>
      <point x="430" y="201"/>
      <point x="430" y="168" type="curve" smooth="yes"/>
      <point x="430" y="113"/>
      <point x="400" y="79"/>
      <point x="353" y="79" type="curve" smooth="yes"/>
      <point x="136" y="79" type="line"/>
    </contour>
  </outline>
</glyph>
<glyph name="djecyr" format="2">
  <advance width="585"/>
  <unicode hex="0452"/>
  <anchor x="358" y="586" name="top"/>
  <outline>
    <contour>
      <point x="33" y="593" type="line"/>
      <point x="359" y="593" type="line"/>
      <point x="359" y="656" type="line"/>
      <point x="33" y="656" type="line"/>
    </contour>
    <contour>
      <point x="69" y="0" type="line"/>
      <point x="156" y="0" type="line"/>
      <point x="156" y="307" type="line" smooth="yes"/>
      <point x="156" y="396.944"/>
      <point x="211.288" y="453"/>
      <point x="300" y="453" type="curve" smooth="yes"/>
      <point x="385.679" y="453"/>
      <point x="430" y="406.974"/>
      <point x="430" y="318" type="curve" smooth="yes"/>
      <point x="430" y="0" type="line"/>
      <point x="517" y="0" type="line"/>
      <point x="517" y="330" type="line" smooth="yes"/>
      <point x="517" y="456.256"/>
      <point x="445.1" y="530"/>
      <point x="322" y="530" type="curve" smooth="yes"/>
      <point x="249.333" y="530"/>
      <point x="192.994" y="504.206"/>
      <point x="156" y="454" type="curve"/>
      <point x="156" y="707" type="line"/>
      <point x="69" y="707" type="line"/>
    </contour>
    <contour>
      <point x="300.152" y="-157" type="line"/>
      <point x="356.152" y="-157" type="line" smooth="yes"/>
      <point x="462.81" y="-157"/>
      <point x="517.152" y="-104.008"/>
      <point x="517.152" y="0" type="curve" smooth="yes"/>
      <point x="517.152" y="100.175" type="line"/>
      <point x="430.152" y="100.175" type="line"/>
      <point x="430.152" y="6" type="line" smooth="yes"/>
      <point x="430.152" y="-55.0238"/>
      <point x="406.458" y="-79"/>
      <point x="346.152" y="-79" type="curve" smooth="yes"/>
      <point x="300.152" y="-79" type="line"/>
    </contour>
  </outline>
  <guideline angle="90" name="h1" x="358" y="0"/>
</glyph>
<glyph name="eukrcyr" format="2">
  <advance width="566"/>
  <unicode hex="0454"/>
  <outline>
    <contour>
      <point x="428" y="183" type="line"/>
      <point x="428" y="179" type="line" smooth="yes"/>
      <point x="428" y="108.438"/>
      <point x="379.183" y="68"/>
      <point x="294" y="68" type="curve" smooth="yes"/>
      <point x="191.333" y="68"/>
      <point x="140" y="125"/>
      <point x="140" y="239" type="curve" smooth="yes"/>
      <point x="140" y="287" type="line" smooth="yes"/>
      <point x="140" y="400.333"/>
      <point x="191.333" y="457"/>
      <point x="294" y="457" type="curve" smooth="yes"/>
      <point x="378.566" y="457"/>
      <point x="428" y="415.313"/>
      <point x="428" y="344" type="curve" smooth="yes"/>
      <point x="428" y="339" type="line"/>
      <point x="513" y="339" type="line"/>
      <point x="513" y="344" type="line" smooth="yes"/>
      <point x="513" y="462.948"/>
      <point x="430.009" y="535"/>
      <point x="293" y="535" type="curve" smooth="yes"/>
      <point x="139.618" y="535"/>
      <point x="53" y="446.217"/>
      <point x="53" y="289" type="curve" smooth="yes"/>
      <point x="53" y="237" type="line" smooth="yes"/>
      <point x="53" y="79.6561"/>
      <point x="139.854" y="-9"/>
      <point x="294" y="-9" type="curve" smooth="yes"/>
      <point x="430.23" y="-9"/>
      <point x="513" y="62.0533"/>
      <point x="513" y="179" type="curve" smooth="yes"/>
      <point x="513" y="183" type="line"/>
    </contour>
    <contour>
      <point x="327.231" y="322" type="line"/>
      <point x="116" y="322" type="line"/>
      <point x="116" y="243" type="line"/>
      <point x="327.231" y="243" type="line"/>
    </contour>
  </outline>
</glyph>
<glyph name="Germandbls" format="2">
  <advance width="747"/>
  <unicode hex="1E9E"/>
  <outline>
    <contour>
      <point x="60" y="1" type="line"/>
      <point x="149" y="1" type="line"/>
      <point x="149" y="490" type="line" smooth="yes"/>
      <point x="149" y="596.275"/>
      <point x="191.77" y="632"/>
      <point x="319" y="632" type="curve" smooth="yes"/>
      <point x="412" y="632"/>
      <point x="452" y="624"/>
      <point x="514" y="593" type="curve"/>
      <point x="319" y="404" type="line"/>
      <point x="319" y="320" type="line"/>
      <point x="433" y="320" type="line" smooth="yes"/>
      <point x="560.047" y="320"/>
      <point x="608" y="287.666"/>
      <point x="608" y="202" type="curve" smooth="yes"/>
      <point x="608" y="114.704"/>
      <point x="563.505" y="84"/>
      <point x="437" y="84" type="curve" smooth="yes"/>
      <point x="265" y="84" type="line"/>
      <point x="265" y="-3" type="line"/>
      <point x="411" y="-3" type="line" smooth="yes"/>
      <point x="618.889" y="-3"/>
      <point x="697" y="53.2617"/>
      <point x="697" y="203" type="curve" smooth="yes"/>
      <point x="697" y="359.79"/>
      <point x="590.561" y="409"/>
      <point x="450" y="409" type="curve"/>
      <point x="635" y="600" type="line"/>
      <point x="567.112" y="673.351"/>
      <point x="457.15" y="714"/>
      <point x="319" y="714" type="curve" smooth="yes"/>
      <point x="139" y="714"/>
      <point x="60" y="643.541"/>
      <point x="60" y="483" type="curve" smooth="yes"/>
    </contour>
  </outline>
</glyph>
<glyph name="estimated" format="2">
  <advance width="929"/>
  <unicode hex="212E"/>
  <outline>
    <contour>
      <point x="723.298" y="129.661" type="line"/>
      <point x="661.12" y="57.9171"/>
      <point x="568.332" y="12.0013"/>
      <point x="465.022" y="12.0013" type="curve" smooth="yes"/>
      <point x="374.147" y="12.0013"/>
      <point x="291.559" y="47.0536"/>
      <point x="230.66" y="104.789" type="curve" smooth="yes"/>
      <point x="217.897" y="116.889"/>
      <point x="209.615" y="134.443"/>
      <point x="209.615" y="153.575" type="curve" smooth="yes"/>
      <point x="209.615" y="329.586" type="line" smooth="yes"/>
      <point x="209.615" y="335.325"/>
      <point x="214.398" y="340.108"/>
      <point x="220.137" y="340.108" type="curve" smooth="yes"/>
      <point x="868.698" y="340.108" type="line"/>
      <point x="868.698" y="351.587" type="line" smooth="yes"/>
      <point x="868.698" y="553.425"/>
      <point x="687.905" y="717"/>
      <point x="465.022" y="717" type="curve" smooth="yes"/>
      <point x="242.139" y="717"/>
      <point x="62.3019" y="553.425"/>
      <point x="62.3019" y="351.587" type="curve" smooth="yes"/>
      <point x="62.3019" y="151.662"/>
      <point x="242.139" y="-10"/>
      <point x="465.022" y="-10" type="curve" smooth="yes"/>
      <point x="595.116" y="-10"/>
      <point x="708.949" y="44.525"/>
      <point x="783.562" y="129.661" type="curve"/>
    </contour>
    <contour>
      <point x="220.137" y="362.109" type="line" smooth="yes"/>
      <point x="214.398" y="362.109"/>
      <point x="209.615" y="366.892"/>
      <point x="209.615" y="372.632" type="curve" smooth="yes"/>
      <point x="209.615" y="552.468" type="line" smooth="yes"/>
      <point x="209.615" y="571.6"/>
      <point x="217.98" y="589.068"/>
      <point x="230.66" y="601.254" type="curve" smooth="yes"/>
      <point x="291.639" y="659.858"/>
      <point x="374.147" y="694.999"/>
      <point x="465.022" y="694.999" type="curve" smooth="yes"/>
      <point x="555.897" y="694.999"/>
      <point x="639.361" y="659.858"/>
      <point x="700.34" y="601.254" type="curve" smooth="yes"/>
      <point x="713.02" y="589.068"/>
      <point x="721.385" y="571.6"/>
      <point x="721.385" y="552.468" type="curve" smooth="yes"/>
      <point x="721.385" y="372.632" type="line" smooth="yes"/>
      <point x="721.385" y="366.892"/>
      <point x="716.602" y="362.109"/>
      <point x="710.862" y="362.109" type="curve" smooth="yes"/>
    </contour>
  </outline>
</glyph>
<glyph name="fl" format="2">
  <advance width="643"/>
  <unicode hex="FB02"/>
  <outline>
    <component base="f"/>
    <contour>
      <point x="561" y="0" type="line"/>
      <point x="561" y="62" type="line"/>
      <point x="546" y="62" type="line" smooth="yes"/>
      <point x="497.333" y="62"/>
      <point x="473" y="89"/>
      <point x="473" y="143" type="curve" smooth="yes"/>
      <point x="473" y="707" type="line"/>
      <point x="402" y="707" type="line"/>
      <point x="402" y="140" type="line" smooth="yes"/>
      <point x="402" y="49.6998"/>
      <point x="452.41" y="0"/>
      <point x="544" y="0" type="curve" smooth="yes"/>
    </contour>
  </outline>
</glyph>
<glyph name="Nacute.loclPLK" format="2">
  <advance width="738"/>
  <outline>
    <component base="N"/>
    <contour>
      <point x="326" y="773" type="line"/>
      <point x="408" y="773" type="line"/>
      <point x="474" y="904" type="line"/>
      <point x="365" y="904" type="line"/>
    </contour>
  </outline>
</glyph>
<glyph name="Zacute.loclPLK" format="2">
  <advance width="584"/>
  <outline>
    <component base="Z"/>
    <contour>
      <point x="249" y="773" type="line"/>
      <point x="331" y="773" type="line"/>
      <point x="397" y="904" type="line"/>
      <point x="288" y="904" type="line"/>
    </contour>
  </outline>
</glyph>
<glyph name="cacute.loclPLK" format="2">
  <advance width="566"/>
  <outline>
    <component base="c"/>
    <contour>
      <point x="240" y="586" type="line"/>
      <point x="322" y="586" type="line"/>
      <point x="388" y="717" type="line"/>
      <point x="279" y="717" type="line"/>
    </contour>
  </outline>
</glyph>
<glyph name="four.sups" format="2">
  <advance width="391"/>
  <outline>
    <contour>
      <point x="40" y="517" type="line"/>
      <point x="241" y="517" type="line"/>
      <point x="241" y="440" type="line"/>
      <point x="311" y="440" type="line"/>
      <point x="311" y="517" type="line"/>
      <point x="351" y="517" type="line"/>
      <point x="351" y="577" type="line"/>
      <point x="311" y="577" type="line"/>
      <point x="311" y="678" type="line"/>
      <point x="241" y="678" type="line"/>
      <point x="241" y="577" type="line"/>
      <point x="111" y="577" type="line"/>
      <point x="229" y="867" type="line"/>
      <point x="160" y="867" type="line"/>
      <point x="40" y="577" type="line"/>
    </contour>
  </outline>
</glyph>
<glyph name="nacute.loclPLK" format="2">
  <advance width="585"/>
  <outline>
    <component base="n"/>
    <contour>
      <point x="249" y="586" type="line"/>
      <point x="331" y="586" type="line"/>
      <point x="397" y="717" type="line"/>
      <point x="288" y="717" type="line"/>
    </contour>
  </outline>
</glyph>
<glyph name="one.dnom" format="2">
  <advance width="240"/>
  <outline>
    <contour>
      <point x="99.9107" y="0" type="line"/>
      <point x="179.911" y="0" type="line"/>
      <point x="179.911" y="427" type="line"/>
      <point x="99.9107" y="427" type="line"/>
      <point x="12.9107" y="374" type="line"/>
      <point x="12.9107" y="291" type="line"/>
      <point x="99.9107" y="345" type="line"/>
    </contour>
  </outline>
</glyph>
<glyph name="three.numr" format="2">
  <advance width="349"/>
  <outline>
    <contour>
      <point x="29.7887" y="398.453" type="line"/>
      <point x="29.7887" y="390.453" type="line" smooth="yes"/>
      <point x="29.7887" y="317.299"/>
      <point x="81.8692" y="274.453"/>
      <point x="170.789" y="274.453" type="curve" smooth="yes"/>
      <point x="261.228" y="274.453"/>
      <point x="316.789" y="321.261"/>
      <point x="316.789" y="397.453" type="curve" smooth="yes"/>
      <point x="316.789" y="406.453" type="line" smooth="yes"/>
      <point x="316.789" y="457.12"/>
      <point x="294.455" y="490.786"/>
      <point x="249.789" y="507.453" type="curve"/>
      <point x="289.789" y="524.786"/>
      <point x="309.789" y="554.453"/>
      <point x="309.789" y="596.453" type="curve" smooth="yes"/>
      <point x="309.789" y="604.453" type="line" smooth="yes"/>
      <point x="309.789" y="673.273"/>
      <point x="257.752" y="714.453"/>
      <point x="170.789" y="714.453" type="curve" smooth="yes"/>
      <point x="83.5186" y="714.453"/>
      <point x="31.7887" y="671.283"/>
      <point x="31.7887" y="598.453" type="curve" smooth="yes"/>
      <point x="31.7887" y="591.453" type="line"/>
      <point x="102.789" y="591.453" type="line"/>
      <point x="102.789" y="598.453" type="line" smooth="yes"/>
      <point x="102.789" y="631.191"/>
      <point x="126.063" y="649.453"/>
      <point x="167.789" y="649.453" type="curve" smooth="yes"/>
      <point x="211.122" y="649.453"/>
      <point x="232.789" y="631.786"/>
      <point x="232.789" y="596.453" type="curve" smooth="yes"/>
      <point x="232.789" y="589.453" type="line" smooth="yes"/>
      <point x="232.789" y="552.786"/>
      <point x="209.789" y="534.453"/>
      <point x="163.789" y="534.453" type="curve" smooth="yes"/>
      <point x="139.789" y="534.453" type="line"/>
      <point x="139.789" y="468.453" type="line"/>
      <point x="163.789" y="468.453" type="line" smooth="yes"/>
      <point x="215.524" y="468.453"/>
      <point x="239.789" y="448.339"/>
      <point x="239.789" y="405.453" type="curve" smooth="yes"/>
      <point x="239.789" y="397.453" type="line" smooth="yes"/>
      <point x="239.789" y="358.786"/>
      <point x="216.455" y="339.453"/>
      <point x="169.789" y="339.453" type="curve" smooth="yes"/>
      <point x="123.789" y="339.453"/>
      <point x="100.789" y="357.12"/>
      <point x="100.789" y="392.453" type="curve" smooth="yes"/>
      <point x="100.789" y="398.453" type="line"/>
    </contour>
  </outline>
</glyph>
<glyph name="three.tosf" format="2">
  <advance width="562"/>
  <outline>
    <contour>
      <point x="59" y="8" type="line"/>
      <point x="59" y="-1" type="line" smooth="yes"/>
      <point x="59" y="-112.666"/>
      <point x="139.837" y="-178"/>
      <point x="278" y="-178" type="curve" smooth="yes"/>
      <point x="418.259" y="-178"/>
      <point x="504" y="-104.779"/>
      <point x="504" y="15" type="curve" smooth="yes"/>
      <point x="504" y="29" type="line" smooth="yes"/>
      <point x="504" y="114.53"/>
      <point x="463.495" y="174.055"/>
      <point x="389" y="198" type="curve"/>
      <point x="454.591" y="224.516"/>
      <point x="490" y="275.35"/>
      <point x="490" y="343" type="curve" smooth="yes"/>
      <point x="490" y="357" type="line" smooth="yes"/>
      <point x="490" y="467.648"/>
      <point x="412.023" y="533"/>
      <point x="280" y="533" type="curve" smooth="yes"/>
      <point x="145.763" y="533"/>
      <point x="68" y="471.009"/>
      <point x="68" y="364" type="curve" smooth="yes"/>
      <point x="68" y="342" type="line"/>
      <point x="156" y="342" type="line"/>
      <point x="156" y="362" type="line" smooth="yes"/>
      <point x="156" y="423.828"/>
      <point x="194.469" y="453"/>
      <point x="276" y="453" type="curve" smooth="yes"/>
      <point x="355.482" y="453"/>
      <point x="398" y="417.104"/>
      <point x="398" y="350" type="curve" smooth="yes"/>
      <point x="398" y="338" type="line" smooth="yes"/>
      <point x="398" y="268.781"/>
      <point x="352.804" y="231"/>
      <point x="270" y="231" type="curve" smooth="yes"/>
      <point x="229" y="231" type="line"/>
      <point x="229" y="149" type="line"/>
      <point x="271" y="149" type="line" smooth="yes"/>
      <point x="362.47" y="149"/>
      <point x="411" y="108.443"/>
      <point x="411" y="32" type="curve" smooth="yes"/>
      <point x="411" y="15" type="line" smooth="yes"/>
      <point x="411" y="-57.5751"/>
      <point x="364.887" y="-97"/>
      <point x="280" y="-97" type="curve" smooth="yes"/>
      <point x="194.117" y="-97"/>
      <point x="149" y="-63.5929"/>
      <point x="149" y="0" type="curve" smooth="yes"/>
      <point x="149" y="8" type="line"/>
    </contour>
  </outline>
</glyph>
<glyph name="tsecyr.loclBGR" format="2">
  <advance width="570"/>
  <outline>
    <component base="icyr.loclBGR" xOffset="-1"/>
    <contour>
      <point x="482.87" y="-170" type="line"/>
      <point x="569.87" y="-170" type="line"/>
      <point x="569.87" y="78.957" type="line"/>
      <point x="462.87" y="78.957" type="line"/>
      <point x="462.87" y="-0.484917" type="line"/>
      <point x="482.87" y="-0.484917" type="line"/>
    </contour>
  </outline>
</glyph>
<glyph name="zhecyr.loclBGR" format="2">
  <advance width="909"/>
  <outline>
    <contour>
      <point x="411" y="0" type="line"/>
      <point x="498" y="0" type="line"/>
      <point x="498" y="707" type="line"/>
      <point x="411" y="707" type="line"/>
    </contour>
    <contour>
      <point x="535.58" y="277" type="line"/>
      <point x="640.35" y="277" type="line"/>
      <point x="888" y="524" type="line"/>
      <point x="779" y="524" type="line"/>
    </contour>
    <contour>
      <point x="793" y="0" type="line"/>
      <point x="896" y="0" type="line"/>
      <point x="658" y="337" type="line"/>
      <point x="598" y="277" type="line"/>
    </contour>
    <contour>
      <point x="478" y="243" type="line"/>
      <point x="653.306" y="243" type="line"/>
      <point x="653.306" y="322" type="line"/>
      <point x="478" y="322" type="line"/>
    </contour>
    <contour>
      <point x="268.65" y="277" type="line"/>
      <point x="373.42" y="277" type="line"/>
      <point x="130" y="524" type="line"/>
      <point x="21" y="524" type="line"/>
    </contour>
    <contour>
      <point x="13" y="0" type="line"/>
      <point x="116" y="0" type="line"/>
      <point x="311" y="277" type="line"/>
      <point x="251" y="337" type="line"/>
    </contour>
    <contour>
      <point x="255.694" y="243" type="line"/>
      <point x="431" y="243" type="line"/>
      <point x="431" y="322" type="line"/>
      <point x="255.694" y="322" type="line"/>
    </contour>
  </outline>
</glyph>
